<?xml version="1.0" encoding="utf-8"?>
<!-- Generator: Adobe Illustrator 24.1.2, SVG Export Plug-In . SVG Version: 6.00 Build 0)  -->
<svg version="1.1" id="Layer_1" xmlns="http://www.w3.org/2000/svg" xmlns:xlink="http://www.w3.org/1999/xlink" x="0px" y="0px"
	 viewBox="0 0 1440 846" style="enable-background:new 0 0 1440 846;" xml:space="preserve">
<style type="text/css">
	.st0{fill:#6070FF;}
	.st1{fill:#7F8CFF;}
	.st2{fill:#FFFFFF;}
</style>
<g>
	<path class="st0" d="M0,846h1440V0H146C65.4,0,0,65.4,0,146V846z"/>
	<g>
		
			<rect x="1220.4" y="99.1" transform="matrix(0.9193 -0.3936 0.3936 0.9193 58.9557 510.4063)" class="st1" width="107.2" height="24.7"/>
		<path class="st2" d="M1366,151.8c-5-8.8-11.9-16.4-20.4-22c-8.4-5.6-18-9.2-28.1-10.4c-10.1-1.2-20.3,0-29.8,3.4
			c-9.5,3.5-18.1,9.1-25,16.5c-6.9,7.4-12,16.3-14.9,26c-2.8,9.7-3.3,20-1.5,29.9c1.9,10,6,19.3,12.2,27.4
			c6.2,8,14.1,14.5,23.3,18.9l12-25c-5.2-2.5-9.7-6.2-13.3-10.8c-3.5-4.6-5.9-9.9-6.9-15.6c-1.1-5.7-0.8-11.5,0.8-17.1
			c1.6-5.5,4.5-10.6,8.5-14.8c3.9-4.2,8.8-7.4,14.3-9.4c5.4-2,11.2-2.6,17-2s11.2,2.7,16,5.9c4.8,3.2,8.8,7.5,11.6,12.5L1366,151.8z
			"/>
		<circle class="st1" cx="491.8" cy="127.4" r="13.5"/>
		
			<rect x="135" y="323.5" transform="matrix(0.5982 -0.8014 0.8014 0.5982 -247.8375 270.2247)" class="st1" width="21" height="117.5"/>
		<circle class="st2" cx="117.5" cy="406.9" r="24"/>
		
			<rect x="345" y="751.7" transform="matrix(0.9157 -0.4019 0.4019 0.9157 -272.682 213.6285)" class="st2" width="55.6" height="9.9"/>
		<path class="st1" d="M374.4,762.6c-2.1,5-2.2,10.7-0.2,15.8c2,5.1,6,9.1,11,11.3c5,2.1,10.7,2.2,15.8,0.2c5.1-2,9.1-6,11.3-11
			L374.4,762.6z"/>
		<circle class="st1" cx="1174.8" cy="558.4" r="37.5"/>
	</g>
</g>
</svg>
