<?xml version="1.0" encoding="utf-8"?>
<!-- Generator: Adobe Illustrator 24.1.2, SVG Export Plug-In . SVG Version: 6.00 Build 0)  -->
<svg version="1.1"
	 id="svg3476" xmlns:cc="http://creativecommons.org/ns#" xmlns:dc="http://purl.org/dc/elements/1.1/" xmlns:inkscape="http://www.inkscape.org/namespaces/inkscape" xmlns:rdf="http://www.w3.org/1999/02/22-rdf-syntax-ns#" xmlns:sodipodi="http://sodipodi.sourceforge.net/DTD/sodipodi-0.dtd" xmlns:svg="http://www.w3.org/2000/svg"
	 xmlns="http://www.w3.org/2000/svg" xmlns:xlink="http://www.w3.org/1999/xlink" x="0px" y="0px" viewBox="0 0 519 519"
	 style="enable-background:new 0 0 519 519;" xml:space="preserve">
<style type="text/css">
	.st0{fill:#264DE4;stroke:#FFFFFF;stroke-width:9;stroke-miterlimit:10;}
	.st1{fill:#2965F1;}
	.st2{fill:#EBEBEB;}
	.st3{fill:#FFFFFF;}
</style>
<sodipodi:namedview  bordercolor="#666666" borderopacity="1.0" fit-margin-bottom="0" fit-margin-left="0" fit-margin-right="0" fit-margin-top="0" id="base" inkscape:current-layer="layer1" inkscape:cx="181.367" inkscape:cy="256" inkscape:document-units="px" inkscape:pageopacity="0.0" inkscape:pageshadow="2" inkscape:window-height="704" inkscape:window-maximized="1" inkscape:window-width="1366" inkscape:window-x="0" inkscape:window-y="27" inkscape:zoom="0.35" pagecolor="#ffffff" showgrid="false">
	</sodipodi:namedview>
<circle class="st0" cx="259.5" cy="259.5" r="255"/>
<g>
	<polygon id="polygon2991" class="st1" points="341.8,425.1 364.4,172 245.7,172 245.7,451.7 	"/>
	<polygon id="polygon2993" class="st2" points="161.2,281.9 164.4,318.2 245.7,318.2 245.7,281.9 	"/>
	<polygon id="polygon2995" class="st2" points="245.7,208.3 245.6,208.3 154.6,208.3 157.9,244.7 245.7,244.7 	"/>
	<polygon id="polygon2997" class="st2" points="245.7,414 245.7,376.2 245.6,376.3 205.1,365.3 202.5,336.4 182.9,336.4 
		166.1,336.4 171.2,393.4 245.6,414.1 	"/>
	<path id="path2999" inkscape:connector-curvature="0" class="st3" d="M168.9,67.3h44v18.4h-25.6v18.4h25.6v18.4h-44V67.3z"/>
	<path id="path3001" inkscape:connector-curvature="0" class="st3" d="M221.7,67.3h44v16h-25.6v3.2h25.6v36.8h-44v-16.8h25.6v-3.2
		h-25.6L221.7,67.3L221.7,67.3z"/>
	<path id="path3003" inkscape:connector-curvature="0" class="st3" d="M274.5,67.3h44v16h-25.6v3.2h25.6v36.8h-44v-16.8h25.6v-3.2
		h-25.6V67.3z"/>
	<polygon id="polygon3005" class="st3" points="290.3,318.2 286.1,365.3 245.6,376.2 245.6,414 320.1,393.4 320.6,387.3 
		329.2,291.6 330.1,281.9 336.6,208.3 245.6,208.3 245.6,244.7 296.8,244.7 293.5,281.9 245.6,281.9 245.6,318.2 	"/>
</g>
</svg>
