<?xml version="1.0" encoding="utf-8"?>
<!-- Generator: Adobe Illustrator 24.1.2, SVG Export Plug-In . SVG Version: 6.00 Build 0)  -->
<svg version="1.1"
	 id="svg3476" xmlns:cc="http://creativecommons.org/ns#" xmlns:dc="http://purl.org/dc/elements/1.1/" xmlns:inkscape="http://www.inkscape.org/namespaces/inkscape" xmlns:rdf="http://www.w3.org/1999/02/22-rdf-syntax-ns#" xmlns:sodipodi="http://sodipodi.sourceforge.net/DTD/sodipodi-0.dtd" xmlns:svg="http://www.w3.org/2000/svg"
	 xmlns="http://www.w3.org/2000/svg" xmlns:xlink="http://www.w3.org/1999/xlink" x="0px" y="0px" viewBox="0 0 519 519"
	 style="enable-background:new 0 0 519 519;" xml:space="preserve">
<style type="text/css">
	.st0{fill:#E44D26;stroke:#FFFFFF;stroke-width:9;stroke-miterlimit:10;}
	.st1{fill:#F16529;}
	.st2{fill:#EBEBEB;}
	.st3{fill:#FFFFFF;}
</style>
<sodipodi:namedview  bordercolor="#666666" borderopacity="1.0" fit-margin-bottom="0" fit-margin-left="0" fit-margin-right="0" fit-margin-top="0" id="base" inkscape:current-layer="layer1" inkscape:cx="181.367" inkscape:cy="256" inkscape:document-units="px" inkscape:pageopacity="0.0" inkscape:pageshadow="2" inkscape:window-height="704" inkscape:window-maximized="1" inkscape:window-width="1366" inkscape:window-x="0" inkscape:window-y="27" inkscape:zoom="0.35" pagecolor="#ffffff" showgrid="false">
	</sodipodi:namedview>
<circle class="st0" cx="259.5" cy="259.5" r="255"/>
<g>
	<polygon class="st1" points="259.2,451.7 355.3,425.1 377.9,172 259.2,172 	"/>
	<polygon class="st2" points="259.2,281.9 211.2,281.9 207.8,244.7 259.2,244.7 259.2,208.3 259.1,208.3 168.1,208.3 169,218.1 
		177.9,318.2 259.2,318.2 	"/>
	<polygon class="st2" points="259.2,376.2 259.1,376.3 218.6,365.3 216,336.4 196.4,336.4 179.6,336.4 184.7,393.4 259.1,414.1 
		259.2,414 	"/>
	<path class="st3" d="M141.1,67.3h18.5v18.2h16.9V67.3H195v55.2h-18.5V104h-16.9v18.5h-18.5V67.3L141.1,67.3z"/>
	<path class="st3" d="M219.2,85.6h-16.3V67.3h51v18.3h-16.3v36.9h-18.5L219.2,85.6L219.2,85.6z"/>
	<path class="st3" d="M262,67.3h19.3l11.8,19.4l11.8-19.4h19.3v55.2h-18.4V95.1l-12.7,19.6h-0.3l-12.7-19.6v27.4H262L262,67.3
		L262,67.3z"/>
	<path class="st3" d="M333.4,67.3h18.5v37h26v18.2h-44.4V67.3H333.4z"/>
	<polygon class="st3" points="259.1,281.9 259.1,318.2 303.8,318.2 299.6,365.3 259.1,376.2 259.1,414 333.6,393.4 334.1,387.3 
		342.7,291.6 343.6,281.9 333.8,281.9 	"/>
	<polygon class="st3" points="259.1,208.3 259.1,230.9 259.1,244.6 259.1,244.7 346.7,244.7 346.7,244.7 346.9,244.7 347.6,236.5 
		349.2,218.1 350.1,208.3 	"/>
</g>
</svg>
