<?xml version="1.0" encoding="utf-8"?>
<!-- Generator: Adobe Illustrator 24.1.2, SVG Export Plug-In . SVG Version: 6.00 Build 0)  -->
<svg version="1.1" id="Layer_1" xmlns="http://www.w3.org/2000/svg" xmlns:xlink="http://www.w3.org/1999/xlink" x="0px" y="0px"
	 viewBox="0 0 528 528" style="enable-background:new 0 0 528 528;" xml:space="preserve">
<style type="text/css">
	.st0{fill:#F7DF1E;}
	.st1{fill:none;stroke:#FFFFFF;stroke-width:9;stroke-miterlimit:10;}
</style>
<path class="st0" d="M519,264.1c0,50.7-14.8,97.8-40.2,137.5c-20,31.1-46.5,57.6-77.7,77.5C361.5,504.4,314.5,519,264,519
	C123.2,519,9,404.8,9,264S123.2,9,264,9S519,123.3,519,264.1z"/>
<path d="M416.7,338l-12-5.1c-20.6-8.9-29.5-14.7-29.5-29.1c0-11.6,8.9-20.5,22.9-20.5c13.8,0,22.6,5.8,30.8,20.5l37.3-24
	c-15.8-27.8-37.7-38.4-68.2-38.4c-42.8,0-70.2,27.4-70.2,63.3c0,39,23,57.5,57.6,72.2l12,5.1c21.9,9.6,34.9,15.4,34.9,31.8
	c0,13.7-12.7,23.6-32.5,23.6c-23.6,0-37-12.3-47.3-29.1l-39,22.6c14.1,27.8,42.8,49,87.3,49c0.4,0,0.7,0,1.1,0
	c31.2-19.9,57.7-46.4,77.7-77.5C475.9,369.9,453.5,353.8,416.7,338z M239.8,244.2v163c0,24-9.9,30.1-25.7,30.1
	c-16.5,0-23.3-11.3-30.9-24.6l-39,23.6c11.3,23.9,33.5,43.8,71.9,43.8c42.5,0,71.6-22.6,71.6-72.2V244.2H239.8z"/>
<circle class="st1" cx="264" cy="264" r="259.5"/>
</svg>
