<?xml version="1.0" encoding="utf-8"?>
<!-- Generator: Adobe Illustrator 24.1.2, SVG Export Plug-In . SVG Version: 6.00 Build 0)  -->
<svg version="1.1" id="Layer_1" xmlns="http://www.w3.org/2000/svg" xmlns:xlink="http://www.w3.org/1999/xlink" x="0px" y="0px"
	 viewBox="0 0 828.3 845.9" style="enable-background:new 0 0 828.3 845.9;" xml:space="preserve">
<style type="text/css">
	.st0{fill:#29235C;}
	.st1{fill:#009FE3;}
</style>
<g>
	<g>
		<g>
			<g>
				<path class="st0" d="M270.5,0c90.9,0,131.8,56,128.1,127S349.4,257.8,257,257.8H146.5L160,0H270.5z M221.9,196.3h38.3
					c46.4,0,64.4-34.6,66.3-70s-14.6-65.5-59.2-65.5H229L221.9,196.3z"/>
				<path class="st0" d="M476.8,146.5c-1.3,38.7,19.3,53.4,44.7,53.4c30.6,0,49.6-18.8,51.4-53.8l4.5-85.1h-68.5L512.1,0h141.4
					l-7.7,146.5c-3.6,67.8-49.2,116.7-128.4,116.7c-74.4,0-115.9-36.1-111.7-116.7H476.8z"/>
			</g>
			<g>
				<path class="st0" d="M228.2,582.6l-3.2,61.1h68.5l-4.5,85.1c-1.8,35-20.9,53.8-51.4,53.8c-25.4,0-46-14.7-44.7-53.4h-71.1
					c-4.2,80.6,37.3,116.7,111.7,116.7c37.8,0,67.9-11.1,89.5-30.2l37.9-75.7c0.5-3.6,0.8-7.2,1-10.9l7.7-146.5H228.2z"/>
				<path class="st0" d="M534.6,798H419.3l-19.2,42.3h-77.3L452,582.6h73.6l101.7,257.8h-78.1L534.6,798z M484.6,654.8l-37.4,82.1
					h65.9L484.6,654.8z"/>
				<path class="st0" d="M685.9,671l60.2-88.4h82.1l-0.2,3.3L717.8,737.6l-5.4,102.7h-72.9l5.4-102.7l-90-152.1l0.2-2.9h82.1
					L685.9,671z"/>
			</g>
			<g>
				<path class="st1" d="M354.6,398.3l-70,78.1h-12.9l-60.4-77.7l-8,153.2h-72.2l13.5-257.8h76.2l63.2,87.3l72.3-87.3h75.9
					l-13.5,257.8h-72.2L354.6,398.3z"/>
				<path class="st1" d="M669.5,551.8h-80.3l-55.6-83.6h-25.4l-4.4,83.6h-72.9l13.5-257.8h125.9c65.9,0,97.9,42.3,95.5,88.7
					c-1.7,31.7-14.1,58.5-58.6,77.7l62.5,86.9L669.5,551.8z M514.3,352.3l-3.2,61.9h53.8c19.1,0,28.4-14.4,29.2-29.8
					c0.8-16.2-7.5-32-26.7-32H514.3z"/>
				<path class="st1" d="M704.6,490.3c-17,0-31.5,13.7-32.3,30.7c-0.9,17,12.2,30.7,29.1,30.7c17,0,31.4-13.8,32.3-30.7
					C734.6,504.1,721.5,490.3,704.6,490.3z M716.5,521.1c-0.4,7.5-6.8,13.5-14.2,13.5c-7.5,0-13.2-6.1-12.8-13.5
					c0.4-7.5,6.8-13.5,14.2-13.5C711.1,507.6,716.9,513.6,716.5,521.1z"/>
			</g>
		</g>
		<g>
			<path class="st0" d="M78.3,799.7l-1.2,23.1H19.9l-1.2,23.1H0l3.6-69.3h18.7l-1.2,23.1H78.3z"/>
			<path class="st0" d="M7.6,701.6h75.8l-1.2,23.1H53.7L52.4,750h28.5l-1.2,23.1H3.8L5,750h28.7l1.3-25.3H6.4L7.6,701.6z"/>
			<path class="st0" d="M27.7,674.3h10.5l1.4-26.4H57l-1.4,26.4h10.5l1.8-35h18.7l-3,58.1H7.8l3-57.8h18.7L27.7,674.3z"/>
			<path class="st0" d="M14.1,577h75.8l-1.2,23.1H12.9L14.1,577z"/>
			<path class="st0" d="M18.1,501.4h75.8l-0.8,15.2l-39.8,33.1h38l-1.2,23.1H14.3l0.8-15.2l39.8-33.1h-38L18.1,501.4z"/>
			<path class="st0" d="M54.8,497.9c-22.5,0-38.4-18.2-37.1-42.2c0.7-13.1,7-24.6,16.3-32h1.6l11.2,14l-0.1,1.6
				c-4.4,3.9-7.9,9.8-8.2,16.5c-0.5,10.4,6.8,18.6,17.6,18.6s19-8.2,19.5-18.6c0.3-6.7-2.5-12.6-6.5-16.5l0.1-1.6l12.6-14h1.6
				c8.1,7.1,13.6,18.2,12.9,32.3C95,479.6,77.3,497.9,54.8,497.9z"/>
			<path class="st0" d="M99.9,353.3l1.7,1l-1.2,23L73,391.7l-0.3,5.5h26.6l-1.2,23.1H22.3l1.8-34.8c1-20,11.4-30.7,26.9-30.7
				c9.9,0,16.5,5.6,19.9,13.9L99.9,353.3z M57.6,397.2l0.6-10.7c0.2-4.3-2-8.1-7-8.1c-5.1,0-8.1,3.7-8.4,8.1l-0.6,10.7H57.6z"/>
			<path class="st0" d="M45.9,326.7h10.5l1.4-26.4h17.5l-1.4,26.4h10.5l1.8-35h18.7l-3,58.1H26l3-57.8h18.7L45.9,326.7z"/>
			<path class="st0" d="M71,212.7c22.9,0,37.2,15.3,35.9,40.1l-1.9,35.4H29.2l1.9-35.4C32.4,228,48.4,212.7,71,212.7z M69.9,236.3
				c-12.4,0-19.6,7.4-20.2,17.5l-0.6,11.3h38.5l0.6-11.3C88.7,243.6,82.2,236.3,69.9,236.3z"/>
			<path class="st0" d="M34.6,186.1h75.8l-1.2,23.1H33.4L34.6,186.1z"/>
			<path class="st0" d="M92.7,117.1c13.2,0,20.8,11.1,19.9,27.8l-1.9,37.1H34.8l1.9-35.4c0.8-15.3,9.5-25.4,21.2-25.4
				c7,0,12.3,3.7,15,9.8C75.9,124,82.2,117.1,92.7,117.1z M52.9,150.7l-0.4,8.2h13.8l0.4-8.2c0.2-4.6-2.3-7.6-6.5-7.6
				C56,143.1,53.1,146.2,52.9,150.7z M88.8,139.7c-4.6,0-7.8,3.6-8.1,9.1l-0.5,10h15.2l0.5-10C96.2,143.4,93.4,139.7,88.8,139.7z"/>
			<path class="st0" d="M116.9,61.6l-2.7,52H38.4l1.2-23.1h57.2l1.5-28.9H116.9z"/>
			<path class="st0" d="M61.2,35h10.5L73,8.6h17.5L89.2,35h10.5l1.8-35h18.7l-3,58.1H41.3l3-57.8H63L61.2,35z"/>
		</g>
	</g>
</g>
</svg>
